<?xml version="1.0" standalone="no"?>
<!DOCTYPE svg PUBLIC "-//W3C//DTD SVG 20010904//EN"
 "http://www.w3.org/TR/2001/REC-SVG-20010904/DTD/svg10.dtd">
<svg version="1.0" xmlns="http://www.w3.org/2000/svg"
 width="88.000000pt" height="47.000000pt" viewBox="0 0 88.000000 47.000000"
 preserveAspectRatio="xMidYMid meet">

<g transform="translate(0.000000,47.000000) scale(0.100000,-0.100000)"
fill="#000000" stroke="none">
<path d="M375 362 c-7 -54 -6 -57 21 -79 16 -12 26 -25 23 -28 -3 -3 -18 4
-32 15 -19 15 -27 32 -30 63 l-4 42 -1 -42 c-2 -32 3 -48 18 -60 61 -54 52
-54 106 -5 36 32 40 38 14 21 -41 -28 -60 -33 -60 -18 0 6 6 9 14 6 20 -8 38
16 30 39 -5 16 -4 17 5 4 9 -12 11 -8 9 20 -2 19 -7 34 -13 33 -12 -2 -46 27
-41 36 2 3 -9 7 -24 8 -27 2 -28 0 -35 -55z m69 -25 c8 -12 7 -20 -2 -29 -11
-11 -12 -10 -7 5 6 13 2 17 -14 17 -24 0 -27 -10 -8 -30 10 -12 9 -12 -5 -1
-21 16 -23 32 -6 49 15 15 28 11 42 -11z"/>
<path d="M283 115 c0 -57 2 -76 6 -50 5 34 10 40 31 40 21 0 26 -6 31 -40 l6
-40 2 41 c1 47 -17 69 -48 59 -17 -5 -20 -1 -24 37 -2 24 -4 3 -4 -47z"/>
<path d="M820 115 c0 -50 4 -85 10 -85 6 0 10 35 10 85 0 50 -4 85 -10 85 -6
0 -10 -35 -10 -85z"/>
<path d="M411 153 c0 -13 -8 -23 -16 -23 -8 0 -15 -4 -15 -10 0 -5 6 -10 14
-10 10 0 16 -14 19 -42 l4 -43 1 43 c1 30 6 42 17 42 8 0 15 5 15 10 0 6 -6
10 -14 10 -8 0 -17 10 -19 23 l-4 22 -2 -22z"/>
<path d="M53 104 c-13 -20 -14 -30 -5 -49 10 -22 18 -25 57 -23 l45 1 0 46 0
47 -40 1 c-33 2 -43 -3 -57 -23z m74 -10 c8 -22 -10 -49 -32 -49 -22 0 -40 27
-32 49 8 21 56 21 64 0z"/>
<path d="M187 123 c-17 -16 -5 -42 24 -52 35 -12 30 -35 -7 -28 -28 5 -33 -8
-5 -16 24 -6 51 10 51 29 0 9 -13 21 -30 27 -16 6 -30 15 -30 19 0 14 22 20
33 9 17 -17 31 -13 17 4 -13 16 -42 20 -53 8z"/>
<path d="M475 106 c-12 -18 -13 -30 -5 -50 9 -23 14 -26 55 -24 l45 1 0 46 0
47 -40 1 c-32 2 -43 -3 -55 -21z m72 -12 c8 -22 -10 -49 -32 -49 -22 0 -40 27
-32 49 8 21 56 21 64 0z"/>
<path d="M600 114 c-12 -14 -12 -18 5 -30 10 -8 25 -14 32 -14 7 0 13 -7 13
-16 0 -13 -7 -15 -30 -10 -35 7 -40 -1 -7 -13 26 -10 57 3 57 25 0 9 -13 21
-30 27 -16 6 -30 15 -30 19 0 15 22 19 37 6 14 -11 16 -11 11 2 -7 21 -42 24
-58 4z"/>
<path d="M707 112 c-34 -37 -15 -82 33 -82 34 0 50 17 50 52 0 45 -53 64 -83
30z m73 -31 c0 -42 -60 -52 -75 -13 -9 25 31 55 56 42 10 -6 19 -19 19 -29z"/>
</g>
</svg>
